<svg width="13" height="11" viewBox="0 0 13 11" fill="none" xmlns="http://www.w3.org/2000/svg">
<path fill-rule="evenodd" clip-rule="evenodd" d="M0 5.58926C1.54269 6.18943 3.1707 6.54149 4.82353 6.63236V7.83822H7.23529V6.63236C8.88413 6.52907 10.5091 6.18579 12.0588 5.61337V9.21639C12.0588 9.78724 11.5961 10.25 11.0252 10.25H1.03361C0.462763 10.25 0 9.78724 0 9.21639V5.58926ZM7.83822 0L8.44118 0.602931V1.80882H11.0252C11.5961 1.80882 12.0588 2.27159 12.0588 2.84243V4.95015C10.2101 5.64041 8.25587 6.00554 6.28263 6.0294H5.84852C3.8488 6.00776 1.86873 5.63216 0 4.92V2.84243C0 2.27159 0.462764 1.80882 1.03361 1.80882H3.61764V0.602931L4.22058 0H7.83822ZM7.23529 1.20589H4.82353V1.80882H7.23529V1.20589Z" fill="#D7DAEC"/>
</svg>
