<svg width="14" height="14" viewBox="0 0 14 14" fill="none" xmlns="http://www.w3.org/2000/svg">
<path d="M2.33073 2.33073H4.08073L5.2474 1.16406H8.7474L9.91406 2.33073H11.6641C11.9735 2.33073 12.2702 2.45365 12.489 2.67244C12.7078 2.89123 12.8307 3.18798 12.8307 3.4974V10.4974C12.8307 10.8068 12.7078 11.1036 12.489 11.3224C12.2702 11.5411 11.9735 11.6641 11.6641 11.6641H2.33073C2.02131 11.6641 1.72456 11.5411 1.50577 11.3224C1.28698 11.1036 1.16406 10.8068 1.16406 10.4974V3.4974C1.16406 3.18798 1.28698 2.89123 1.50577 2.67244C1.72456 2.45365 2.02131 2.33073 2.33073 2.33073ZM6.9974 4.08073C6.22385 4.08073 5.48198 4.38802 4.935 4.935C4.38802 5.48198 4.08073 6.22385 4.08073 6.9974C4.08073 7.77094 4.38802 8.51281 4.935 9.05979C5.48198 9.60677 6.22385 9.91406 6.9974 9.91406C7.77094 9.91406 8.51281 9.60677 9.05979 9.05979C9.60677 8.51281 9.91406 7.77094 9.91406 6.9974C9.91406 6.22385 9.60677 5.48198 9.05979 4.935C8.51281 4.38802 7.77094 4.08073 6.9974 4.08073ZM6.9974 5.2474C7.46152 5.2474 7.90664 5.43177 8.23483 5.75996C8.56302 6.08815 8.7474 6.53327 8.7474 6.9974C8.7474 7.46152 8.56302 7.90664 8.23483 8.23483C7.90664 8.56302 7.46152 8.7474 6.9974 8.7474C6.53327 8.7474 6.08815 8.56302 5.75996 8.23483C5.43177 7.90664 5.2474 7.46152 5.2474 6.9974C5.2474 6.53327 5.43177 6.08815 5.75996 5.75996C6.08815 5.43177 6.53327 5.2474 6.9974 5.2474Z" fill="#D7DAEC"/>
</svg>
