<svg width="143" height="139" viewBox="0 0 143 139" fill="none" xmlns="http://www.w3.org/2000/svg">
<g filter="url(#filter0_ii_581_20701)">
<path d="M100.033 109.43H100.024C99.5552 119.863 77.346 129.233 50.0166 129.233C22.6874 129.233 0.478961 119.863 0.00976562 109.43H0.000976562V79.2188H100.033V109.43Z" fill="#0C234D" fill-opacity="0.35"/>
</g>
<g filter="url(#filter1_ii_581_20701)">
<path d="M100.033 79.2188H100.024C99.5538 89.5883 77.3451 96.002 50.0166 96.002C22.6883 96.0019 0.48036 89.5882 0.00976562 79.2188H0.000976562V49.0078H100.033V79.2188Z" fill="#012C7D"/>
</g>
<g filter="url(#filter2_ii_581_20701)">
<path d="M100.033 49.6797H100.024C99.5538 60.0492 77.3451 66.4629 50.0166 66.4629C22.6883 66.4628 0.48036 60.0492 0.00976562 49.6797H0.000976562V19.4688H100.033V49.6797Z" fill="#0C234D"/>
</g>
<g filter="url(#filter3_ii_581_20701)">
<path d="M0.000175476 21.1477C0.000175476 31.7149 22.3931 38.2673 50.0162 38.2673C77.6393 38.2673 100.032 31.7149 100.032 21.1477C100.032 10.5805 77.6393 0 50.0162 0C22.3931 0 0.000175476 10.5805 0.000175476 21.1477Z" fill="#10346F"/>
</g>
<path d="M125.598 61.5504L116.836 59.8888L113.891 51.4297L111.021 52.4115L113.966 60.7951L108.075 67.5926L110.341 69.5563L116.232 62.7588L124.993 64.4204L125.598 61.5504Z" fill="#0446C0"/>
<path d="M115.477 57.3203C113.362 57.3203 111.7 58.9819 111.7 61.0967C111.7 63.2115 113.362 64.8731 115.477 64.8731C117.591 64.8731 119.253 63.2115 119.253 61.0967C119.253 58.9819 117.591 57.3203 115.477 57.3203ZM115.477 62.6072C114.646 62.6072 113.966 61.9275 113.966 61.0967C113.966 60.2659 114.646 59.5861 115.477 59.5861C116.307 59.5861 116.987 60.2659 116.987 61.0967C116.987 61.9275 116.307 62.6072 115.477 62.6072Z" fill="#2366EF"/>
<path d="M128.083 63.361C128.234 62.6057 128.309 61.8504 128.309 61.0952C128.309 59.9622 128.234 59.5846 128.083 58.8293L130.575 57.0167C130.877 56.7901 131.028 56.3369 130.802 55.9593L127.554 50.3702C127.327 49.9926 126.95 49.8416 126.572 50.0681L123.778 51.2766C122.645 50.2947 121.285 49.5394 119.85 49.0108L119.548 45.9141C119.472 45.5365 119.17 45.2344 118.793 45.2344H112.297C111.92 45.2344 111.542 45.5365 111.542 45.9141L111.089 49.0108C109.654 49.5394 108.294 50.2947 107.161 51.2766L104.367 49.9926C103.989 49.8416 103.536 49.9926 103.385 50.3702L100.137 55.9593C99.9108 56.3369 100.062 56.7901 100.364 57.0167L102.856 58.8293C102.705 59.5846 102.63 60.3399 102.63 61.0952C102.63 62.2281 102.705 62.6057 102.856 63.361L100.364 65.1736C100.062 65.4002 99.9108 65.8534 100.137 66.231L103.385 71.8201C103.612 72.1977 103.989 72.3488 104.367 72.1222L107.161 70.9137C108.294 71.8956 109.654 72.6509 111.089 73.1796L111.391 76.2762C111.467 76.6538 111.769 76.9559 112.146 76.9559H118.642C119.019 76.9559 119.397 76.6538 119.397 76.2762L119.699 73.1796C121.134 72.6509 122.494 71.8956 123.626 70.9137L126.421 72.1977C126.799 72.3488 127.252 72.1977 127.403 71.8956L130.651 66.3066C130.877 65.9289 130.726 65.4758 130.424 65.2492L128.083 63.361ZM115.47 69.4032C110.862 69.4032 107.161 65.7023 107.161 61.0952C107.161 56.488 110.862 52.7871 115.47 52.7871C120.077 52.7871 123.778 56.488 123.778 61.0952C123.778 65.7023 120.077 69.4032 115.47 69.4032Z" fill="#2366EF"/>
<path d="M131.732 113.424L119.402 111.085L115.256 99.1797L111.217 100.562L115.363 112.361L107.071 121.927L110.26 124.691L118.551 115.124L130.882 117.463L131.732 113.424Z" fill="#0446C0"/>
<path d="M117.492 107.469C114.515 107.469 112.177 109.807 112.177 112.784C112.177 115.76 114.515 118.099 117.492 118.099C120.468 118.099 122.807 115.76 122.807 112.784C122.807 109.807 120.468 107.469 117.492 107.469ZM117.492 114.91C116.322 114.91 115.366 113.953 115.366 112.784C115.366 111.614 116.322 110.658 117.492 110.658C118.661 110.658 119.618 111.614 119.618 112.784C119.618 113.953 118.661 114.91 117.492 114.91Z" fill="#2366EF"/>
<path d="M135.247 115.972C135.459 114.909 135.565 113.847 135.565 112.784C135.565 111.189 135.459 110.658 135.247 109.595L138.754 107.043C139.18 106.725 139.392 106.087 139.073 105.555L134.502 97.6892C134.184 97.1577 133.652 96.9451 133.121 97.264L129.188 98.9648C127.593 97.5829 125.68 96.5199 123.66 95.7758L123.235 91.4176C123.129 90.8861 122.703 90.4609 122.172 90.4609H113.03C112.499 90.4609 111.967 90.8861 111.967 91.4176L111.329 95.7758C109.31 96.5199 107.396 97.5829 105.802 98.9648L101.869 97.1577C101.337 96.9451 100.7 97.1577 100.487 97.6892L95.9162 105.555C95.5973 106.087 95.8099 106.725 96.2351 107.043L99.743 109.595C99.5304 110.658 99.4241 111.721 99.4241 112.784C99.4241 114.378 99.5304 114.909 99.743 115.972L96.2351 118.524C95.8099 118.843 95.5973 119.48 95.9162 120.012L100.487 127.878C100.806 128.409 101.337 128.622 101.869 128.303L105.802 126.602C107.396 127.984 109.31 129.047 111.329 129.791L111.755 134.149C111.861 134.681 112.286 135.106 112.818 135.106H121.959C122.491 135.106 123.022 134.681 123.022 134.149L123.447 129.791C125.467 129.047 127.38 127.984 128.975 126.602L132.908 128.409C133.439 128.622 134.077 128.409 134.29 127.984L138.861 120.118C139.18 119.587 138.967 118.949 138.542 118.63L135.247 115.972ZM117.495 124.476C111.011 124.476 105.802 119.268 105.802 112.784C105.802 106.299 111.011 101.091 117.495 101.091C123.979 101.091 129.188 106.299 129.188 112.784C129.188 119.268 123.979 124.476 117.495 124.476Z" fill="#2366EF"/>
<circle cx="11.0791" cy="43.9727" r="5.03517" fill="#2366EF"/>
<circle cx="11.0791" cy="74.1836" r="5.03517" fill="#2366EF"/>
<circle cx="11.0791" cy="104.395" r="5.03517" fill="#2366EF"/>
<defs>
<filter id="filter0_ii_581_20701" x="0.000976562" y="78.1549" width="100.032" height="52.1423" filterUnits="userSpaceOnUse" color-interpolation-filters="sRGB">
<feFlood flood-opacity="0" result="BackgroundImageFix"/>
<feBlend mode="normal" in="SourceGraphic" in2="BackgroundImageFix" result="shape"/>
<feColorMatrix in="SourceAlpha" type="matrix" values="0 0 0 0 0 0 0 0 0 0 0 0 0 0 0 0 0 0 127 0" result="hardAlpha"/>
<feOffset dy="1.06384"/>
<feGaussianBlur stdDeviation="2.12767"/>
<feComposite in2="hardAlpha" operator="arithmetic" k2="-1" k3="1"/>
<feColorMatrix type="matrix" values="0 0 0 0 0.0954996 0 0 0 0 0.379056 0 0 0 0 0.920391 0 0 0 0.51 0"/>
<feBlend mode="normal" in2="shape" result="effect1_innerShadow_581_20701"/>
<feColorMatrix in="SourceAlpha" type="matrix" values="0 0 0 0 0 0 0 0 0 0 0 0 0 0 0 0 0 0 127 0" result="hardAlpha"/>
<feOffset dy="-1.06384"/>
<feGaussianBlur stdDeviation="2.12767"/>
<feComposite in2="hardAlpha" operator="arithmetic" k2="-1" k3="1"/>
<feColorMatrix type="matrix" values="0 0 0 0 0.0941176 0 0 0 0 0.380392 0 0 0 0 0.921569 0 0 0 0.51 0"/>
<feBlend mode="normal" in2="effect1_innerShadow_581_20701" result="effect2_innerShadow_581_20701"/>
</filter>
<filter id="filter1_ii_581_20701" x="0.000976562" y="47.944" width="100.032" height="49.1218" filterUnits="userSpaceOnUse" color-interpolation-filters="sRGB">
<feFlood flood-opacity="0" result="BackgroundImageFix"/>
<feBlend mode="normal" in="SourceGraphic" in2="BackgroundImageFix" result="shape"/>
<feColorMatrix in="SourceAlpha" type="matrix" values="0 0 0 0 0 0 0 0 0 0 0 0 0 0 0 0 0 0 127 0" result="hardAlpha"/>
<feOffset dy="1.06384"/>
<feGaussianBlur stdDeviation="2.12767"/>
<feComposite in2="hardAlpha" operator="arithmetic" k2="-1" k3="1"/>
<feColorMatrix type="matrix" values="0 0 0 0 0.0954996 0 0 0 0 0.379056 0 0 0 0 0.920391 0 0 0 0.51 0"/>
<feBlend mode="normal" in2="shape" result="effect1_innerShadow_581_20701"/>
<feColorMatrix in="SourceAlpha" type="matrix" values="0 0 0 0 0 0 0 0 0 0 0 0 0 0 0 0 0 0 127 0" result="hardAlpha"/>
<feOffset dy="-1.06384"/>
<feGaussianBlur stdDeviation="2.12767"/>
<feComposite in2="hardAlpha" operator="arithmetic" k2="-1" k3="1"/>
<feColorMatrix type="matrix" values="0 0 0 0 0.0941176 0 0 0 0 0.380392 0 0 0 0 0.921569 0 0 0 0.51 0"/>
<feBlend mode="normal" in2="effect1_innerShadow_581_20701" result="effect2_innerShadow_581_20701"/>
</filter>
<filter id="filter2_ii_581_20701" x="0.000976562" y="18.4049" width="100.032" height="49.1218" filterUnits="userSpaceOnUse" color-interpolation-filters="sRGB">
<feFlood flood-opacity="0" result="BackgroundImageFix"/>
<feBlend mode="normal" in="SourceGraphic" in2="BackgroundImageFix" result="shape"/>
<feColorMatrix in="SourceAlpha" type="matrix" values="0 0 0 0 0 0 0 0 0 0 0 0 0 0 0 0 0 0 127 0" result="hardAlpha"/>
<feOffset dy="1.06384"/>
<feGaussianBlur stdDeviation="2.12767"/>
<feComposite in2="hardAlpha" operator="arithmetic" k2="-1" k3="1"/>
<feColorMatrix type="matrix" values="0 0 0 0 0.0954996 0 0 0 0 0.379056 0 0 0 0 0.920391 0 0 0 0.51 0"/>
<feBlend mode="normal" in2="shape" result="effect1_innerShadow_581_20701"/>
<feColorMatrix in="SourceAlpha" type="matrix" values="0 0 0 0 0 0 0 0 0 0 0 0 0 0 0 0 0 0 127 0" result="hardAlpha"/>
<feOffset dy="-1.06384"/>
<feGaussianBlur stdDeviation="2.12767"/>
<feComposite in2="hardAlpha" operator="arithmetic" k2="-1" k3="1"/>
<feColorMatrix type="matrix" values="0 0 0 0 0.0941176 0 0 0 0 0.380392 0 0 0 0 0.921569 0 0 0 0.51 0"/>
<feBlend mode="normal" in2="effect1_innerShadow_581_20701" result="effect2_innerShadow_581_20701"/>
</filter>
<filter id="filter3_ii_581_20701" x="0" y="-1.06384" width="100.032" height="40.395" filterUnits="userSpaceOnUse" color-interpolation-filters="sRGB">
<feFlood flood-opacity="0" result="BackgroundImageFix"/>
<feBlend mode="normal" in="SourceGraphic" in2="BackgroundImageFix" result="shape"/>
<feColorMatrix in="SourceAlpha" type="matrix" values="0 0 0 0 0 0 0 0 0 0 0 0 0 0 0 0 0 0 127 0" result="hardAlpha"/>
<feOffset dy="1.06384"/>
<feGaussianBlur stdDeviation="2.12767"/>
<feComposite in2="hardAlpha" operator="arithmetic" k2="-1" k3="1"/>
<feColorMatrix type="matrix" values="0 0 0 0 0.0954996 0 0 0 0 0.379056 0 0 0 0 0.920391 0 0 0 0.51 0"/>
<feBlend mode="normal" in2="shape" result="effect1_innerShadow_581_20701"/>
<feColorMatrix in="SourceAlpha" type="matrix" values="0 0 0 0 0 0 0 0 0 0 0 0 0 0 0 0 0 0 127 0" result="hardAlpha"/>
<feOffset dy="-1.06384"/>
<feGaussianBlur stdDeviation="2.12767"/>
<feComposite in2="hardAlpha" operator="arithmetic" k2="-1" k3="1"/>
<feColorMatrix type="matrix" values="0 0 0 0 0.0941176 0 0 0 0 0.380392 0 0 0 0 0.921569 0 0 0 0.51 0"/>
<feBlend mode="normal" in2="effect1_innerShadow_581_20701" result="effect2_innerShadow_581_20701"/>
</filter>
</defs>
</svg>
