<svg width="10" height="13" viewBox="0 0 10 13" fill="none" xmlns="http://www.w3.org/2000/svg">
<g clip-path="url(#clip0_581_20669)">
<path d="M4.30102 0.135449C4.57315 -0.0451497 4.9294 -0.0451497 5.20154 0.135449L5.6419 0.424902C5.79034 0.521387 5.96352 0.568392 6.13917 0.558496L6.66612 0.526335C6.99269 0.506543 7.29946 0.684668 7.44542 0.976595L7.68292 1.44912C7.76209 1.60745 7.89073 1.73363 8.04659 1.81279L8.52407 2.05277C8.81599 2.19873 8.99412 2.5055 8.97433 2.83206L8.94217 3.35902C8.93227 3.53467 8.97927 3.71032 9.07576 3.85628L9.36769 4.29665C9.54829 4.56878 9.54829 4.92503 9.36769 5.19717L9.07576 5.64001C8.97927 5.78844 8.93227 5.96162 8.94217 6.13727L8.97433 6.66423C8.99412 6.99079 8.81599 7.29756 8.52407 7.44352L8.05154 7.68102C7.89321 7.76019 7.76704 7.88884 7.68787 8.04469L7.44789 8.52217C7.30193 8.8141 6.99516 8.99222 6.6686 8.97243L6.14164 8.94027C5.96599 8.93037 5.79034 8.97738 5.64438 9.07386L5.20401 9.36579C4.93188 9.54639 4.57563 9.54639 4.30349 9.36579L3.86065 9.07386C3.71222 8.97738 3.53904 8.93037 3.36339 8.94027L2.83644 8.97243C2.50987 8.99222 2.2031 8.8141 2.05714 8.52217L1.81964 8.04964C1.74047 7.89131 1.61183 7.76514 1.45597 7.68597L0.978493 7.446C0.686566 7.30003 0.508441 6.99326 0.528233 6.6667L0.560394 6.13975C0.57029 5.9641 0.523285 5.78844 0.4268 5.64248L0.137347 5.19964C-0.0432516 4.92751 -0.0432516 4.57126 0.137347 4.29912L0.4268 3.85876C0.523285 3.71032 0.57029 3.53714 0.560394 3.36149L0.528233 2.83454C0.508441 2.50798 0.686566 2.2012 0.978493 2.05524L1.45102 1.81774C1.60935 1.7361 1.738 1.60745 1.81717 1.44912L2.05467 0.976595C2.20063 0.684668 2.5074 0.506543 2.83396 0.526335L3.36092 0.558496C3.53657 0.568392 3.71222 0.521387 3.85818 0.424902L4.30102 0.135449ZM6.73045 4.74938C6.73045 4.22447 6.52193 3.72107 6.15076 3.3499C5.7796 2.97873 5.27619 2.77021 4.75128 2.77021C4.22637 2.77021 3.72296 2.97873 3.3518 3.3499C2.98063 3.72107 2.77211 4.22447 2.77211 4.74938C2.77211 5.27429 2.98063 5.7777 3.3518 6.14886C3.72296 6.52003 4.22637 6.72855 4.75128 6.72855C5.27619 6.72855 5.7796 6.52003 6.15076 6.14886C6.52193 5.7777 6.73045 5.27429 6.73045 4.74938ZM0.0334411 10.9293L1.09972 8.39352C1.10467 8.396 1.10714 8.39847 1.10961 8.40342L1.34711 8.87594C1.63657 9.4499 2.23774 9.79873 2.88097 9.76162L3.40792 9.72946C3.41287 9.72946 3.42029 9.72946 3.42524 9.73441L3.8656 10.0263C3.99177 10.108 4.12537 10.1723 4.26391 10.2168L3.3337 12.4261C3.2768 12.5621 3.15063 12.6537 3.00467 12.666C2.8587 12.6784 2.71769 12.6116 2.63852 12.4879L1.8419 11.2683L0.454014 11.4736C0.312998 11.4934 0.171983 11.4365 0.0829203 11.3252C-0.00614224 11.2138 -0.02346 11.0604 0.0309671 10.9293H0.0334411ZM6.16886 12.4236L5.23865 10.2168C5.37719 10.1723 5.51079 10.1104 5.63696 10.0263L6.07732 9.73441C6.08227 9.73193 6.08722 9.72946 6.09464 9.72946L6.62159 9.76162C7.26482 9.79873 7.86599 9.4499 8.15545 8.87594L8.39295 8.40342C8.39542 8.39847 8.39789 8.396 8.40284 8.39352L9.47159 10.9293C9.52602 11.0604 9.50623 11.2114 9.41964 11.3252C9.33305 11.439 9.18956 11.4959 9.04855 11.4736L7.66066 11.2683L6.86404 12.4854C6.78487 12.6091 6.64386 12.6759 6.49789 12.6636C6.35193 12.6512 6.22576 12.5572 6.16886 12.4236Z" fill="#D7DAEC"/>
</g>
<defs>
<clipPath id="clip0_581_20669">
<rect width="9.5" height="12.6667" fill="white"/>
</clipPath>
</defs>
</svg>
