<svg width="296" height="178" viewBox="0 0 296 178" fill="none" xmlns="http://www.w3.org/2000/svg">
<g filter="url(#filter0_ii_581_20677)">
<rect x="37.6758" y="113.312" width="4.50873" height="116.054" transform="rotate(-112.635 37.6758 113.312)" fill="#0C234D" fill-opacity="0.35"/>
</g>
<g filter="url(#filter1_ii_581_20677)">
<rect x="264.137" y="132.102" width="4.50873" height="116.054" transform="rotate(131.653 264.137 132.102)" fill="#0C234D" fill-opacity="0.35"/>
</g>
<g filter="url(#filter2_ii_581_20677)">
<rect x="252.656" y="120.516" width="43.3429" height="38.0571" rx="10.5714" fill="#0C234D"/>
<path d="M277.651 130.717C276.807 129.806 275.628 129.305 274.328 129.305C273.02 129.305 271.837 129.803 270.998 130.709C270.149 131.624 269.735 132.868 269.832 134.211C270.025 136.861 272.041 139.017 274.328 139.017C276.614 139.017 278.627 136.862 278.823 134.212C278.921 132.881 278.505 131.64 277.651 130.717ZM281.959 148.73H266.696C266.497 148.732 266.299 148.69 266.117 148.607C265.936 148.523 265.775 148.4 265.647 148.247C265.365 147.91 265.252 147.45 265.336 146.985C265.702 144.955 266.844 143.249 268.639 142.052C270.234 140.99 272.254 140.405 274.328 140.405C276.401 140.405 278.422 140.99 280.016 142.052C281.811 143.249 282.954 144.954 283.319 146.984C283.404 147.45 283.29 147.91 283.008 148.247C282.88 148.4 282.72 148.523 282.538 148.607C282.357 148.69 282.159 148.732 281.959 148.73Z" fill="#2366EF"/>
</g>
<g filter="url(#filter3_ii_581_20677)">
<rect y="90.9138" width="43.3429" height="38.0571" rx="10.5714" fill="#0C234D"/>
<path d="M24.9944 101.116C24.1506 100.205 22.9721 99.7029 21.6713 99.7029C20.3636 99.7029 19.1812 100.202 18.3413 101.107C17.4924 102.022 17.0787 103.266 17.1758 104.609C17.3684 107.26 19.385 109.415 21.6713 109.415C23.9577 109.415 25.9709 107.26 26.1664 104.61C26.2648 103.279 25.8486 102.038 24.9944 101.116ZM29.3026 119.128H14.0401C13.8403 119.13 13.6425 119.089 13.461 119.005C13.2795 118.922 13.1188 118.799 12.9908 118.645C12.709 118.308 12.5954 117.848 12.6795 117.383C13.0454 115.353 14.1875 113.648 15.9826 112.451C17.5774 111.388 19.5975 110.803 21.6713 110.803C23.7452 110.803 25.7653 111.388 27.3601 112.451C29.1552 113.647 30.2973 115.353 30.6632 117.383C30.7473 117.848 30.6337 118.308 30.3519 118.645C30.2239 118.798 30.0633 118.921 29.8818 119.005C29.7003 119.088 29.5024 119.13 29.3026 119.128Z" fill="#2366EF"/>
</g>
<g filter="url(#filter4_ii_581_20677)">
<rect x="156.055" y="44.3984" width="4.50873" height="116.054" transform="rotate(6.60133 156.055 44.3984)" fill="#0C234D" fill-opacity="0.35"/>
</g>
<g filter="url(#filter5_ii_581_20677)">
<circle cx="156.314" cy="54.8227" r="42.7502" transform="rotate(110.075 156.314 54.8227)" fill="#0C234D"/>
</g>
<circle cx="156.442" cy="54.9656" r="30.5359" fill="url(#paint0_radial_581_20677)"/>
<path d="M159.252 46.1392C158.408 45.2282 157.23 44.7266 155.929 44.7266C154.621 44.7266 153.439 45.2252 152.599 46.1305C151.75 47.0459 151.337 48.2898 151.434 49.6331C151.626 52.2832 153.643 54.4391 155.929 54.4391C158.215 54.4391 160.229 52.2837 160.424 49.634C160.523 48.3028 160.106 47.0615 159.252 46.1392ZM163.56 64.1516H148.298C148.098 64.1542 147.9 64.1122 147.719 64.0287C147.537 63.9452 147.377 63.8223 147.249 63.669C146.967 63.3321 146.853 62.872 146.937 62.4068C147.303 60.3767 148.445 58.6714 150.24 57.4742C151.835 56.4115 153.855 55.8266 155.929 55.8266C158.003 55.8266 160.023 56.4119 161.618 57.4742C163.413 58.6709 164.555 60.3763 164.921 62.4063C165.005 62.8716 164.892 63.3316 164.61 63.6685C164.482 63.822 164.321 63.945 164.14 64.0285C163.958 64.1121 163.76 64.1541 163.56 64.1516Z" fill="#2366EF"/>
<g filter="url(#filter6_ii_581_20677)">
<rect x="125.801" y="139.539" width="43.3429" height="38.0571" rx="10.5714" fill="#0C234D"/>
<path d="M150.795 149.741C149.951 148.83 148.773 148.328 147.472 148.328C146.164 148.328 144.982 148.827 144.142 149.732C143.293 150.647 142.879 151.891 142.977 153.235C143.169 155.885 145.186 158.041 147.472 158.041C149.758 158.041 151.772 155.885 151.967 153.236C152.066 151.904 151.649 150.663 150.795 149.741ZM155.103 167.753H139.841C139.641 167.756 139.443 167.714 139.262 167.63C139.08 167.547 138.92 167.424 138.792 167.271C138.51 166.934 138.396 166.474 138.48 166.008C138.846 163.978 139.988 162.273 141.783 161.076C143.378 160.013 145.398 159.428 147.472 159.428C149.546 159.428 151.566 160.013 153.161 161.076C154.956 162.273 156.098 163.978 156.464 166.008C156.548 166.473 156.435 166.933 156.153 167.27C156.025 167.424 155.864 167.547 155.683 167.63C155.501 167.714 155.303 167.756 155.103 167.753Z" fill="#2366EF"/>
</g>
<defs>
<filter id="filter0_ii_581_20677" x="35.9407" y="63.4302" width="108.851" height="50.9395" filterUnits="userSpaceOnUse" color-interpolation-filters="sRGB">
<feFlood flood-opacity="0" result="BackgroundImageFix"/>
<feBlend mode="normal" in="SourceGraphic" in2="BackgroundImageFix" result="shape"/>
<feColorMatrix in="SourceAlpha" type="matrix" values="0 0 0 0 0 0 0 0 0 0 0 0 0 0 0 0 0 0 127 0" result="hardAlpha"/>
<feOffset dy="1.05714"/>
<feGaussianBlur stdDeviation="2.11429"/>
<feComposite in2="hardAlpha" operator="arithmetic" k2="-1" k3="1"/>
<feColorMatrix type="matrix" values="0 0 0 0 0.0954996 0 0 0 0 0.379056 0 0 0 0 0.920391 0 0 0 0.51 0"/>
<feBlend mode="normal" in2="shape" result="effect1_innerShadow_581_20677"/>
<feColorMatrix in="SourceAlpha" type="matrix" values="0 0 0 0 0 0 0 0 0 0 0 0 0 0 0 0 0 0 127 0" result="hardAlpha"/>
<feOffset dy="-1.05714"/>
<feGaussianBlur stdDeviation="2.11429"/>
<feComposite in2="hardAlpha" operator="arithmetic" k2="-1" k3="1"/>
<feColorMatrix type="matrix" values="0 0 0 0 0.0941176 0 0 0 0 0.380392 0 0 0 0 0.921569 0 0 0 0.51 0"/>
<feBlend mode="normal" in2="effect1_innerShadow_581_20677" result="effect2_innerShadow_581_20677"/>
</filter>
<filter id="filter1_ii_581_20677" x="174.426" y="53.9128" width="89.7104" height="82.6148" filterUnits="userSpaceOnUse" color-interpolation-filters="sRGB">
<feFlood flood-opacity="0" result="BackgroundImageFix"/>
<feBlend mode="normal" in="SourceGraphic" in2="BackgroundImageFix" result="shape"/>
<feColorMatrix in="SourceAlpha" type="matrix" values="0 0 0 0 0 0 0 0 0 0 0 0 0 0 0 0 0 0 127 0" result="hardAlpha"/>
<feOffset dy="1.05714"/>
<feGaussianBlur stdDeviation="2.11429"/>
<feComposite in2="hardAlpha" operator="arithmetic" k2="-1" k3="1"/>
<feColorMatrix type="matrix" values="0 0 0 0 0.0954996 0 0 0 0 0.379056 0 0 0 0 0.920391 0 0 0 0.51 0"/>
<feBlend mode="normal" in2="shape" result="effect1_innerShadow_581_20677"/>
<feColorMatrix in="SourceAlpha" type="matrix" values="0 0 0 0 0 0 0 0 0 0 0 0 0 0 0 0 0 0 127 0" result="hardAlpha"/>
<feOffset dy="-1.05714"/>
<feGaussianBlur stdDeviation="2.11429"/>
<feComposite in2="hardAlpha" operator="arithmetic" k2="-1" k3="1"/>
<feColorMatrix type="matrix" values="0 0 0 0 0.0941176 0 0 0 0 0.380392 0 0 0 0 0.921569 0 0 0 0.51 0"/>
<feBlend mode="normal" in2="effect1_innerShadow_581_20677" result="effect2_innerShadow_581_20677"/>
</filter>
<filter id="filter2_ii_581_20677" x="252.656" y="119.458" width="43.3428" height="40.1714" filterUnits="userSpaceOnUse" color-interpolation-filters="sRGB">
<feFlood flood-opacity="0" result="BackgroundImageFix"/>
<feBlend mode="normal" in="SourceGraphic" in2="BackgroundImageFix" result="shape"/>
<feColorMatrix in="SourceAlpha" type="matrix" values="0 0 0 0 0 0 0 0 0 0 0 0 0 0 0 0 0 0 127 0" result="hardAlpha"/>
<feOffset dy="1.05714"/>
<feGaussianBlur stdDeviation="2.11429"/>
<feComposite in2="hardAlpha" operator="arithmetic" k2="-1" k3="1"/>
<feColorMatrix type="matrix" values="0 0 0 0 0.0954996 0 0 0 0 0.379056 0 0 0 0 0.920391 0 0 0 0.51 0"/>
<feBlend mode="normal" in2="shape" result="effect1_innerShadow_581_20677"/>
<feColorMatrix in="SourceAlpha" type="matrix" values="0 0 0 0 0 0 0 0 0 0 0 0 0 0 0 0 0 0 127 0" result="hardAlpha"/>
<feOffset dy="-1.05714"/>
<feGaussianBlur stdDeviation="2.11429"/>
<feComposite in2="hardAlpha" operator="arithmetic" k2="-1" k3="1"/>
<feColorMatrix type="matrix" values="0 0 0 0 0.0941176 0 0 0 0 0.380392 0 0 0 0 0.921569 0 0 0 0.51 0"/>
<feBlend mode="normal" in2="effect1_innerShadow_581_20677" result="effect2_innerShadow_581_20677"/>
</filter>
<filter id="filter3_ii_581_20677" x="0" y="89.8567" width="43.3428" height="40.1714" filterUnits="userSpaceOnUse" color-interpolation-filters="sRGB">
<feFlood flood-opacity="0" result="BackgroundImageFix"/>
<feBlend mode="normal" in="SourceGraphic" in2="BackgroundImageFix" result="shape"/>
<feColorMatrix in="SourceAlpha" type="matrix" values="0 0 0 0 0 0 0 0 0 0 0 0 0 0 0 0 0 0 127 0" result="hardAlpha"/>
<feOffset dy="1.05714"/>
<feGaussianBlur stdDeviation="2.11429"/>
<feComposite in2="hardAlpha" operator="arithmetic" k2="-1" k3="1"/>
<feColorMatrix type="matrix" values="0 0 0 0 0.0954996 0 0 0 0 0.379056 0 0 0 0 0.920391 0 0 0 0.51 0"/>
<feBlend mode="normal" in2="shape" result="effect1_innerShadow_581_20677"/>
<feColorMatrix in="SourceAlpha" type="matrix" values="0 0 0 0 0 0 0 0 0 0 0 0 0 0 0 0 0 0 127 0" result="hardAlpha"/>
<feOffset dy="-1.05714"/>
<feGaussianBlur stdDeviation="2.11429"/>
<feComposite in2="hardAlpha" operator="arithmetic" k2="-1" k3="1"/>
<feColorMatrix type="matrix" values="0 0 0 0 0.0941176 0 0 0 0 0.380392 0 0 0 0 0.921569 0 0 0 0.51 0"/>
<feBlend mode="normal" in2="effect1_innerShadow_581_20677" result="effect2_innerShadow_581_20677"/>
</filter>
<filter id="filter4_ii_581_20677" x="142.713" y="43.3413" width="17.8203" height="117.918" filterUnits="userSpaceOnUse" color-interpolation-filters="sRGB">
<feFlood flood-opacity="0" result="BackgroundImageFix"/>
<feBlend mode="normal" in="SourceGraphic" in2="BackgroundImageFix" result="shape"/>
<feColorMatrix in="SourceAlpha" type="matrix" values="0 0 0 0 0 0 0 0 0 0 0 0 0 0 0 0 0 0 127 0" result="hardAlpha"/>
<feOffset dy="1.05714"/>
<feGaussianBlur stdDeviation="2.11429"/>
<feComposite in2="hardAlpha" operator="arithmetic" k2="-1" k3="1"/>
<feColorMatrix type="matrix" values="0 0 0 0 0.0954996 0 0 0 0 0.379056 0 0 0 0 0.920391 0 0 0 0.51 0"/>
<feBlend mode="normal" in2="shape" result="effect1_innerShadow_581_20677"/>
<feColorMatrix in="SourceAlpha" type="matrix" values="0 0 0 0 0 0 0 0 0 0 0 0 0 0 0 0 0 0 127 0" result="hardAlpha"/>
<feOffset dy="-1.05714"/>
<feGaussianBlur stdDeviation="2.11429"/>
<feComposite in2="hardAlpha" operator="arithmetic" k2="-1" k3="1"/>
<feColorMatrix type="matrix" values="0 0 0 0 0.0941176 0 0 0 0 0.380392 0 0 0 0 0.921569 0 0 0 0.51 0"/>
<feBlend mode="normal" in2="effect1_innerShadow_581_20677" result="effect2_innerShadow_581_20677"/>
</filter>
<filter id="filter5_ii_581_20677" x="113.552" y="9.87831" width="85.5239" height="89.8886" filterUnits="userSpaceOnUse" color-interpolation-filters="sRGB">
<feFlood flood-opacity="0" result="BackgroundImageFix"/>
<feBlend mode="normal" in="SourceGraphic" in2="BackgroundImageFix" result="shape"/>
<feColorMatrix in="SourceAlpha" type="matrix" values="0 0 0 0 0 0 0 0 0 0 0 0 0 0 0 0 0 0 127 0" result="hardAlpha"/>
<feOffset dy="2.18248"/>
<feGaussianBlur stdDeviation="4.36496"/>
<feComposite in2="hardAlpha" operator="arithmetic" k2="-1" k3="1"/>
<feColorMatrix type="matrix" values="0 0 0 0 0.0954996 0 0 0 0 0.379056 0 0 0 0 0.920391 0 0 0 0.51 0"/>
<feBlend mode="normal" in2="shape" result="effect1_innerShadow_581_20677"/>
<feColorMatrix in="SourceAlpha" type="matrix" values="0 0 0 0 0 0 0 0 0 0 0 0 0 0 0 0 0 0 127 0" result="hardAlpha"/>
<feOffset dy="-2.18248"/>
<feGaussianBlur stdDeviation="4.36496"/>
<feComposite in2="hardAlpha" operator="arithmetic" k2="-1" k3="1"/>
<feColorMatrix type="matrix" values="0 0 0 0 0.0941176 0 0 0 0 0.380392 0 0 0 0 0.921569 0 0 0 0.51 0"/>
<feBlend mode="normal" in2="effect1_innerShadow_581_20677" result="effect2_innerShadow_581_20677"/>
</filter>
<filter id="filter6_ii_581_20677" x="125.801" y="138.482" width="43.3428" height="40.1714" filterUnits="userSpaceOnUse" color-interpolation-filters="sRGB">
<feFlood flood-opacity="0" result="BackgroundImageFix"/>
<feBlend mode="normal" in="SourceGraphic" in2="BackgroundImageFix" result="shape"/>
<feColorMatrix in="SourceAlpha" type="matrix" values="0 0 0 0 0 0 0 0 0 0 0 0 0 0 0 0 0 0 127 0" result="hardAlpha"/>
<feOffset dy="1.05714"/>
<feGaussianBlur stdDeviation="2.11429"/>
<feComposite in2="hardAlpha" operator="arithmetic" k2="-1" k3="1"/>
<feColorMatrix type="matrix" values="0 0 0 0 0.0954996 0 0 0 0 0.379056 0 0 0 0 0.920391 0 0 0 0.51 0"/>
<feBlend mode="normal" in2="shape" result="effect1_innerShadow_581_20677"/>
<feColorMatrix in="SourceAlpha" type="matrix" values="0 0 0 0 0 0 0 0 0 0 0 0 0 0 0 0 0 0 127 0" result="hardAlpha"/>
<feOffset dy="-1.05714"/>
<feGaussianBlur stdDeviation="2.11429"/>
<feComposite in2="hardAlpha" operator="arithmetic" k2="-1" k3="1"/>
<feColorMatrix type="matrix" values="0 0 0 0 0.0941176 0 0 0 0 0.380392 0 0 0 0 0.921569 0 0 0 0.51 0"/>
<feBlend mode="normal" in2="effect1_innerShadow_581_20677" result="effect2_innerShadow_581_20677"/>
</filter>
<radialGradient id="paint0_radial_581_20677" cx="0" cy="0" r="1" gradientUnits="userSpaceOnUse" gradientTransform="translate(156.442 54.9656) rotate(90) scale(30.5359)">
<stop stop-color="#000206"/>
<stop offset="1" stop-color="#0E3177"/>
</radialGradient>
</defs>
</svg>
