<svg width="152" height="149" viewBox="0 0 152 149" fill="none" xmlns="http://www.w3.org/2000/svg">
<g filter="url(#filter0_ii_581_20746)">
<path d="M39.1328 44.0956C44.7146 41.6688 55.4129 49.7583 60.0644 54.1064L42.7731 77.4647C32.2568 79.2848 10.3141 83.0464 6.67382 83.5318C3.03355 84.0172 0.707829 82.5206 0 81.7117C10.7186 70.1842 33.5511 46.5225 39.1328 44.0956Z" fill="#0C234D"/>
</g>
<g filter="url(#filter1_ii_581_20746)">
<path d="M99.5182 109.948C102.422 104.599 95.2956 93.2361 91.3694 88.2235L66.5933 103.414C63.8637 113.731 58.2045 135.263 57.4038 138.847C56.6031 142.431 57.8913 144.878 58.6355 145.654C71.0531 135.981 96.6142 115.297 99.5182 109.948Z" fill="#0C234D"/>
</g>
<path d="M18.2021 106.887C25.2192 96.0609 37.4123 92.9087 45.3741 92.5389C47.8624 92.4234 49.9911 94.5041 50.518 96.9386C51.4856 101.41 52.6634 108.092 49.4477 115.381C45.0108 125.438 29.1229 124.785 20.0222 129.336C14.6524 132.021 11.326 134.594 10.6182 136.313C9.60702 131.965 9.70814 119.992 18.2021 106.887Z" fill="#2366EF"/>
<path d="M13.3452 71.6985C21.4347 63.1034 37.6136 46.14 40.3438 45.9126C43.9841 45.6094 51.8713 50.1594 55.2083 52.8905" stroke="#6D8AC5" stroke-opacity="0.5" stroke-width="0.606711" stroke-linecap="round"/>
<path d="M69.7714 133.236C79.0387 125.926 97.3473 111.287 97.8118 108.587C98.431 104.987 94.5855 96.733 92.1556 93.1708" stroke="#6D8AC5" stroke-opacity="0.5" stroke-width="0.606711" stroke-linecap="round"/>
<g filter="url(#filter2_ii_581_20746)">
<path d="M35.8018 82.6237C83.1057 8.71054 128.393 -0.658477 150.32 0.0369928C151.268 0.0670573 152.007 0.847536 152.005 1.79592C151.897 52.6074 92.9851 94.4266 60.9803 110.229C46.9046 103.919 38.3297 89.1964 35.8018 82.6237Z" fill="#0C234D"/>
</g>
<g filter="url(#filter3_ii_581_20746)">
<circle cx="104.045" cy="45.6097" r="17.5946" fill="#06142E" fill-opacity="0.7"/>
</g>
<circle cx="104.045" cy="45.6097" r="16.0778" stroke="#2366EF" stroke-width="3.03355"/>
<g filter="url(#filter4_ii_581_20746)">
<circle cx="77.3573" cy="69.2738" r="10.9208" fill="#06142E" fill-opacity="0.7"/>
</g>
<circle cx="77.3573" cy="69.2738" r="9.70737" stroke="#2366EF" stroke-width="2.42684"/>
<mask id="path-11-inside-1_581_20746" fill="white">
<path d="M115.497 46.822C115.876 46.822 116.185 46.5148 116.164 46.1368C116.079 44.6375 115.716 43.1649 115.093 41.7946C114.374 40.216 113.325 38.8098 112.017 37.6708C110.709 36.5318 109.172 35.6865 107.51 35.1918C106.067 34.7623 104.558 34.6058 103.061 34.728C102.684 34.7588 102.422 35.107 102.474 35.4821C102.526 35.8571 102.873 36.1166 103.25 36.0885C104.552 35.9916 105.863 36.1324 107.119 36.5059C108.593 36.9447 109.957 37.6945 111.117 38.7048C112.277 39.7151 113.207 40.9624 113.845 42.3627C114.387 43.5546 114.707 44.8337 114.79 46.1369C114.814 46.5147 115.119 46.822 115.497 46.822Z"/>
</mask>
<path d="M115.497 46.822C115.876 46.822 116.185 46.5148 116.164 46.1368C116.079 44.6375 115.716 43.1649 115.093 41.7946C114.374 40.216 113.325 38.8098 112.017 37.6708C110.709 36.5318 109.172 35.6865 107.51 35.1918C106.067 34.7623 104.558 34.6058 103.061 34.728C102.684 34.7588 102.422 35.107 102.474 35.4821C102.526 35.8571 102.873 36.1166 103.25 36.0885C104.552 35.9916 105.863 36.1324 107.119 36.5059C108.593 36.9447 109.957 37.6945 111.117 38.7048C112.277 39.7151 113.207 40.9624 113.845 42.3627C114.387 43.5546 114.707 44.8337 114.79 46.1369C114.814 46.5147 115.119 46.822 115.497 46.822Z" stroke="#6D8AC5" stroke-opacity="0.5" stroke-width="4.18421" mask="url(#path-11-inside-1_581_20746)"/>
<mask id="path-12-inside-2_581_20746" fill="white">
<path d="M83.8554 70.6346C84.0904 70.6346 84.2822 70.4439 84.2689 70.2093C84.2163 69.2787 83.9913 68.3647 83.6041 67.5142C83.1581 66.5344 82.5072 65.6616 81.6953 64.9546C80.8834 64.2476 79.9293 63.7229 78.8975 63.4159C78.0018 63.1493 77.0655 63.0522 76.1365 63.128C75.9023 63.1471 75.7398 63.3633 75.7722 63.5961C75.8045 63.8288 76.0194 63.9899 76.2537 63.9725C77.062 63.9123 77.8757 63.9997 78.6548 64.2315C79.57 64.5039 80.4162 64.9693 81.1364 65.5964C81.8566 66.2235 82.4339 66.9977 82.8296 67.8668C83.1663 68.6066 83.3648 69.4005 83.4164 70.2094C83.4313 70.4439 83.6204 70.6346 83.8554 70.6346Z"/>
</mask>
<path d="M83.8554 70.6346C84.0904 70.6346 84.2822 70.4439 84.2689 70.2093C84.2163 69.2787 83.9913 68.3647 83.6041 67.5142C83.1581 66.5344 82.5072 65.6616 81.6953 64.9546C80.8834 64.2476 79.9293 63.7229 78.8975 63.4159C78.0018 63.1493 77.0655 63.0522 76.1365 63.128C75.9023 63.1471 75.7398 63.3633 75.7722 63.5961C75.8045 63.8288 76.0194 63.9899 76.2537 63.9725C77.062 63.9123 77.8757 63.9997 78.6548 64.2315C79.57 64.5039 80.4162 64.9693 81.1364 65.5964C81.8566 66.2235 82.4339 66.9977 82.8296 67.8668C83.1663 68.6066 83.3648 69.4005 83.4164 70.2094C83.4313 70.4439 83.6204 70.6346 83.8554 70.6346Z" stroke="#6D8AC5" stroke-opacity="0.5" stroke-width="4.18421" mask="url(#path-12-inside-2_581_20746)"/>
<path d="M108.871 9.97168C126.076 1.41969 140.524 -0.276348 150.314 0.0341797C151.262 0.0643915 152.001 0.844679 151.999 1.79297C151.968 16.3763 147.091 30.2176 139.398 42.917C131.843 28.1185 118.927 16.7343 108.871 9.97168Z" fill="#2366EF"/>
<defs>
<filter id="filter0_ii_581_20746" x="0" y="43.0439" width="60.0645" height="41.1893" filterUnits="userSpaceOnUse" color-interpolation-filters="sRGB">
<feFlood flood-opacity="0" result="BackgroundImageFix"/>
<feBlend mode="normal" in="SourceGraphic" in2="BackgroundImageFix" result="shape"/>
<feColorMatrix in="SourceAlpha" type="matrix" values="0 0 0 0 0 0 0 0 0 0 0 0 0 0 0 0 0 0 127 0" result="hardAlpha"/>
<feOffset dy="0.606711"/>
<feGaussianBlur stdDeviation="1.21342"/>
<feComposite in2="hardAlpha" operator="arithmetic" k2="-1" k3="1"/>
<feColorMatrix type="matrix" values="0 0 0 0 0.0954996 0 0 0 0 0.379056 0 0 0 0 0.920391 0 0 0 0.51 0"/>
<feBlend mode="normal" in2="shape" result="effect1_innerShadow_581_20746"/>
<feColorMatrix in="SourceAlpha" type="matrix" values="0 0 0 0 0 0 0 0 0 0 0 0 0 0 0 0 0 0 127 0" result="hardAlpha"/>
<feOffset dy="-0.606711"/>
<feGaussianBlur stdDeviation="1.21342"/>
<feComposite in2="hardAlpha" operator="arithmetic" k2="-1" k3="1"/>
<feColorMatrix type="matrix" values="0 0 0 0 0.0941176 0 0 0 0 0.380392 0 0 0 0 0.921569 0 0 0 0.51 0"/>
<feBlend mode="normal" in2="effect1_innerShadow_581_20746" result="effect2_innerShadow_581_20746"/>
</filter>
<filter id="filter1_ii_581_20746" x="57.1504" y="87.6167" width="43.0459" height="58.6441" filterUnits="userSpaceOnUse" color-interpolation-filters="sRGB">
<feFlood flood-opacity="0" result="BackgroundImageFix"/>
<feBlend mode="normal" in="SourceGraphic" in2="BackgroundImageFix" result="shape"/>
<feColorMatrix in="SourceAlpha" type="matrix" values="0 0 0 0 0 0 0 0 0 0 0 0 0 0 0 0 0 0 127 0" result="hardAlpha"/>
<feOffset dy="0.606711"/>
<feGaussianBlur stdDeviation="1.21342"/>
<feComposite in2="hardAlpha" operator="arithmetic" k2="-1" k3="1"/>
<feColorMatrix type="matrix" values="0 0 0 0 0.0954996 0 0 0 0 0.379056 0 0 0 0 0.920391 0 0 0 0.51 0"/>
<feBlend mode="normal" in2="shape" result="effect1_innerShadow_581_20746"/>
<feColorMatrix in="SourceAlpha" type="matrix" values="0 0 0 0 0 0 0 0 0 0 0 0 0 0 0 0 0 0 127 0" result="hardAlpha"/>
<feOffset dy="-0.606711"/>
<feGaussianBlur stdDeviation="1.21342"/>
<feComposite in2="hardAlpha" operator="arithmetic" k2="-1" k3="1"/>
<feColorMatrix type="matrix" values="0 0 0 0 0.0941176 0 0 0 0 0.380392 0 0 0 0 0.921569 0 0 0 0.51 0"/>
<feBlend mode="normal" in2="effect1_innerShadow_581_20746" result="effect2_innerShadow_581_20746"/>
</filter>
<filter id="filter2_ii_581_20746" x="35.8018" y="-0.603781" width="116.203" height="111.439" filterUnits="userSpaceOnUse" color-interpolation-filters="sRGB">
<feFlood flood-opacity="0" result="BackgroundImageFix"/>
<feBlend mode="normal" in="SourceGraphic" in2="BackgroundImageFix" result="shape"/>
<feColorMatrix in="SourceAlpha" type="matrix" values="0 0 0 0 0 0 0 0 0 0 0 0 0 0 0 0 0 0 127 0" result="hardAlpha"/>
<feOffset dy="0.606711"/>
<feGaussianBlur stdDeviation="1.21342"/>
<feComposite in2="hardAlpha" operator="arithmetic" k2="-1" k3="1"/>
<feColorMatrix type="matrix" values="0 0 0 0 0.0954996 0 0 0 0 0.379056 0 0 0 0 0.920391 0 0 0 0.51 0"/>
<feBlend mode="normal" in2="shape" result="effect1_innerShadow_581_20746"/>
<feColorMatrix in="SourceAlpha" type="matrix" values="0 0 0 0 0 0 0 0 0 0 0 0 0 0 0 0 0 0 127 0" result="hardAlpha"/>
<feOffset dy="-0.606711"/>
<feGaussianBlur stdDeviation="1.21342"/>
<feComposite in2="hardAlpha" operator="arithmetic" k2="-1" k3="1"/>
<feColorMatrix type="matrix" values="0 0 0 0 0.0941176 0 0 0 0 0.380392 0 0 0 0 0.921569 0 0 0 0.51 0"/>
<feBlend mode="normal" in2="effect1_innerShadow_581_20746" result="effect2_innerShadow_581_20746"/>
</filter>
<filter id="filter3_ii_581_20746" x="86.4507" y="27.4084" width="35.1895" height="36.4026" filterUnits="userSpaceOnUse" color-interpolation-filters="sRGB">
<feFlood flood-opacity="0" result="BackgroundImageFix"/>
<feBlend mode="normal" in="SourceGraphic" in2="BackgroundImageFix" result="shape"/>
<feColorMatrix in="SourceAlpha" type="matrix" values="0 0 0 0 0 0 0 0 0 0 0 0 0 0 0 0 0 0 127 0" result="hardAlpha"/>
<feOffset dy="0.606711"/>
<feGaussianBlur stdDeviation="1.21342"/>
<feComposite in2="hardAlpha" operator="arithmetic" k2="-1" k3="1"/>
<feColorMatrix type="matrix" values="0 0 0 0 0.0954996 0 0 0 0 0.379056 0 0 0 0 0.920391 0 0 0 0.51 0"/>
<feBlend mode="normal" in2="shape" result="effect1_innerShadow_581_20746"/>
<feColorMatrix in="SourceAlpha" type="matrix" values="0 0 0 0 0 0 0 0 0 0 0 0 0 0 0 0 0 0 127 0" result="hardAlpha"/>
<feOffset dy="-0.606711"/>
<feGaussianBlur stdDeviation="1.21342"/>
<feComposite in2="hardAlpha" operator="arithmetic" k2="-1" k3="1"/>
<feColorMatrix type="matrix" values="0 0 0 0 0.0941176 0 0 0 0 0.380392 0 0 0 0 0.921569 0 0 0 0.51 0"/>
<feBlend mode="normal" in2="effect1_innerShadow_581_20746" result="effect2_innerShadow_581_20746"/>
</filter>
<filter id="filter4_ii_581_20746" x="66.4365" y="57.7463" width="21.8418" height="23.055" filterUnits="userSpaceOnUse" color-interpolation-filters="sRGB">
<feFlood flood-opacity="0" result="BackgroundImageFix"/>
<feBlend mode="normal" in="SourceGraphic" in2="BackgroundImageFix" result="shape"/>
<feColorMatrix in="SourceAlpha" type="matrix" values="0 0 0 0 0 0 0 0 0 0 0 0 0 0 0 0 0 0 127 0" result="hardAlpha"/>
<feOffset dy="0.606711"/>
<feGaussianBlur stdDeviation="1.21342"/>
<feComposite in2="hardAlpha" operator="arithmetic" k2="-1" k3="1"/>
<feColorMatrix type="matrix" values="0 0 0 0 0.0954996 0 0 0 0 0.379056 0 0 0 0 0.920391 0 0 0 0.51 0"/>
<feBlend mode="normal" in2="shape" result="effect1_innerShadow_581_20746"/>
<feColorMatrix in="SourceAlpha" type="matrix" values="0 0 0 0 0 0 0 0 0 0 0 0 0 0 0 0 0 0 127 0" result="hardAlpha"/>
<feOffset dy="-0.606711"/>
<feGaussianBlur stdDeviation="1.21342"/>
<feComposite in2="hardAlpha" operator="arithmetic" k2="-1" k3="1"/>
<feColorMatrix type="matrix" values="0 0 0 0 0.0941176 0 0 0 0 0.380392 0 0 0 0 0.921569 0 0 0 0.51 0"/>
<feBlend mode="normal" in2="effect1_innerShadow_581_20746" result="effect2_innerShadow_581_20746"/>
</filter>
</defs>
</svg>
