<svg width="13" height="13" viewBox="0 0 13 13" fill="none" xmlns="http://www.w3.org/2000/svg">
<path d="M12.8164 7.70916C12.8145 7.85171 12.7683 7.99014 12.6842 8.10529C12.6002 8.22044 12.4824 8.30662 12.3472 8.35191L11.1388 8.75041C10.7578 8.88099 10.4139 9.10147 10.1361 9.39316C9.84664 9.67521 9.62661 10.0207 9.4934 10.4023L9.07561 11.6042C9.02802 11.7368 8.94322 11.8528 8.83137 11.9384C8.71276 12.0218 8.5714 12.0667 8.42644 12.067C8.28298 12.0698 8.1427 12.0246 8.02794 11.9384C7.91067 11.854 7.82296 11.7348 7.77726 11.5978L7.37233 10.3894C7.24697 10.0095 7.0347 9.66416 6.7524 9.38075C6.4701 9.09733 6.12556 8.88369 5.74618 8.75684L4.53782 8.35833C4.40191 8.31042 4.28333 8.22316 4.19716 8.10766C4.13286 8.02016 4.09041 7.91855 4.07335 7.81131C4.05629 7.70407 4.0651 7.59431 4.09906 7.49117C4.13302 7.38803 4.19115 7.2945 4.26859 7.21838C4.34602 7.14225 4.44054 7.08574 4.54424 7.05356L5.74618 6.65505C6.12982 6.53012 6.47866 6.31666 6.76451 6.03193C7.05036 5.7472 7.26519 5.39919 7.39162 5.01604L7.79012 3.82053C7.82906 3.68702 7.91025 3.56975 8.02151 3.4863C8.13202 3.39461 8.27005 3.34257 8.41358 3.33847C8.55989 3.32899 8.70503 3.36982 8.82494 3.45417C8.94819 3.53242 9.04113 3.65029 9.08847 3.7884L9.4934 5.00962C9.61833 5.39325 9.83179 5.7421 10.1165 6.02795C10.4013 6.3138 10.7493 6.52862 11.1324 6.65505L12.3343 7.07284C12.4696 7.11517 12.5871 7.20104 12.6686 7.31708C12.7563 7.42983 12.8079 7.56653 12.8164 7.70916ZM6.47249 3.24142C6.47064 3.37318 6.42834 3.5012 6.35131 3.60812C6.27428 3.71504 6.16625 3.7957 6.04185 3.83917L5.18056 4.12198C4.93746 4.20769 4.71747 4.34848 4.53782 4.53334C4.3547 4.71442 4.21419 4.93397 4.12646 5.17609L3.82437 6.03737C3.78297 6.15745 3.70692 6.26257 3.60583 6.33946C3.4964 6.41618 3.36665 6.45869 3.23304 6.46158C3.10049 6.45927 2.9719 6.41603 2.86489 6.33778C2.75788 6.25954 2.67768 6.15012 2.63528 6.02452L2.35247 5.16323C2.26676 4.92013 2.12597 4.70014 1.94111 4.52049C1.76004 4.33738 1.54048 4.19686 1.29837 4.10913L0.430656 3.81989C0.304849 3.7794 0.19623 3.69794 0.122138 3.5885C0.0420159 3.48325 -0.000933928 3.35441 1.54057e-05 3.22214C0.000880593 3.08818 0.0435772 2.95784 0.122138 2.84934C0.202448 2.74616 0.312317 2.66992 0.437084 2.63081L1.29837 2.34157C1.54048 2.25384 1.76004 2.11332 1.94111 1.93021C2.12751 1.75217 2.26827 1.53171 2.35247 1.28746L2.64171 0.439037C2.68023 0.317428 2.75406 0.210031 2.85382 0.130518C2.95649 0.0494314 3.08294 0.00427212 3.21375 0.00196815C3.3463 -0.00917908 3.47847 0.0272827 3.58655 0.104808C3.69717 0.177902 3.78249 0.28342 3.83079 0.406899L4.12003 1.28746C4.2068 1.53042 4.34756 1.75024 4.53139 1.93021C4.71246 2.11332 4.93202 2.25384 5.17414 2.34157L6.04185 2.64366C6.16283 2.68884 6.2674 2.76943 6.34192 2.8749C6.41644 2.98038 6.45746 3.10586 6.45963 3.23499L6.47249 3.24142Z" fill="#D7DAEC"/>
</svg>
