<svg width="12" height="12" viewBox="0 0 12 12" fill="none" xmlns="http://www.w3.org/2000/svg">
<path d="M5.37152 0.362037C5.43571 0.25188 5.52767 0.16048 5.63821 0.0969552C5.74875 0.03343 5.87402 0 6.00152 0C6.12901 0 6.25428 0.03343 6.36483 0.0969552C6.47537 0.16048 6.56732 0.25188 6.63152 0.362037L8.26193 3.16087L11.4283 3.84687C11.5528 3.87393 11.6681 3.93317 11.7626 4.01868C11.8571 4.10419 11.9276 4.21298 11.9669 4.3342C12.0063 4.45542 12.0132 4.58485 11.987 4.70957C11.9607 4.8343 11.9022 4.94996 11.8173 5.04504L9.65902 7.46062L9.98568 10.6835C9.99857 10.8104 9.97794 10.9385 9.92585 11.055C9.87376 11.1714 9.79204 11.2721 9.68884 11.3471C9.58564 11.4221 9.46458 11.4687 9.33774 11.4822C9.21091 11.4958 9.08273 11.4758 8.96602 11.4244L6.00152 10.1177L3.03702 11.4244C2.9203 11.4758 2.79213 11.4958 2.66529 11.4822C2.53845 11.4687 2.41739 11.4221 2.31419 11.3471C2.21099 11.2721 2.12927 11.1714 2.07718 11.055C2.02509 10.9385 2.00446 10.8104 2.01735 10.6835L2.34402 7.46062L0.185684 5.04562C0.10065 4.95055 0.0420412 4.83484 0.0157086 4.71004C-0.0106241 4.58524 -0.00375927 4.45571 0.0356176 4.33439C0.0749946 4.21308 0.145506 4.10421 0.240112 4.01866C0.334719 3.93311 0.45011 3.87388 0.574767 3.84687L3.7411 3.16087L5.37152 0.362037Z" fill="#D7DAEC"/>
</svg>
