<svg width="14" height="14" viewBox="0 0 14 14" fill="none" xmlns="http://www.w3.org/2000/svg">
<path d="M12.2474 4.66406V9.91406C12.2474 10.0688 12.1859 10.2171 12.0765 10.3265L10.9098 11.4931C10.8895 11.5136 10.8676 11.5325 10.8445 11.5497L10.7803 11.5911L10.7138 11.6226L10.6526 11.6431L10.5656 11.6606L10.4974 11.6641H2.91406C2.44993 11.6641 2.00481 11.4797 1.67663 11.1515C1.34844 10.8233 1.16406 10.3782 1.16406 9.91406C1.16406 9.44993 1.34844 9.00481 1.67663 8.67663C2.00481 8.34844 2.44993 8.16406 2.91406 8.16406H5.2474C5.40211 8.16406 5.55048 8.1026 5.65987 7.99321C5.76927 7.88381 5.83073 7.73544 5.83073 7.58073C5.83073 7.42602 5.76927 7.27765 5.65987 7.16825C5.55048 7.05885 5.40211 6.9974 5.2474 6.9974H3.4974C3.34269 6.9974 3.19431 6.93594 3.08492 6.82654C2.97552 6.71714 2.91406 6.56877 2.91406 6.41406C2.91406 6.25935 2.97552 6.11098 3.08492 6.00158C3.19431 5.89219 3.34269 5.83073 3.4974 5.83073H5.2474C5.71152 5.83073 6.15664 6.0151 6.48483 6.34329C6.81302 6.67148 6.9974 7.1166 6.9974 7.58073C6.9974 8.04486 6.81302 8.48998 6.48483 8.81817C6.15664 9.14635 5.71152 9.33073 5.2474 9.33073H2.91406C2.75935 9.33073 2.61098 9.39219 2.50158 9.50158C2.39219 9.61098 2.33073 9.75935 2.33073 9.91406C2.33073 10.0688 2.39219 10.2171 2.50158 10.3265C2.61098 10.4359 2.75935 10.4974 2.91406 10.4974H9.08865L8.91831 10.3265C8.80891 10.2171 8.74743 10.0688 8.7474 9.91406V4.66406H12.2474ZM10.4974 1.16406C11.4733 1.16406 12.2474 1.93815 12.2474 2.91406V3.4974H8.7474V2.91406C8.7474 1.93815 9.52148 1.16406 10.4974 1.16406Z" fill="#D7DAEC"/>
</svg>
